# xmcd
#
# Track frame offsets:
#	150
#	17590
#	34138
#	52640
#	70213
#	88908
#	105845
#	119490
#	137213
#	156453
#	177465
#	198095
#
# Disc length: 2851 seconds
#
# Revision: 0
# Processed by: cddbd v1.5.2PL0 Copyright (c) Steve Scherf et al.
# Submitted via: EasyCDDAExtractor 2010.4.0.0
#
DISCID=9d0b210c
DTITLE=Nicolas Tovar
DYEAR=1900
DGENRE=
TTITLE0=Dime Que Si
TTITLE1=Palabras Sin Sentido
TTITLE2=Amor Del Bueno
TTITLE3=Cadenas
TTITLE4=Lo Tienes Que Decir
TTITLE5=Canto
TTITLE6=No Soy Un Don Juan
TTITLE7=De Tu Amor No Pido Nada
TTITLE8=Hemos Roto Las Reglas
TTITLE9=Seremos Dos Enamorados
TTITLE10=Si Pudiera Amarte Mas
TTITLE11=Eva Maria
EXTD=
EXTT0=
EXTT1=
EXTT2=
EXTT3=
EXTT4=
EXTT5=
EXTT6=
EXTT7=
EXTT8=
EXTT9=
EXTT10=
EXTT11=
PLAYORDER=
